<?xml version="1.0" encoding="UTF-8" standalone="no"?>
<!-- Created with Inkscape (http://www.inkscape.org/) -->

<svg
   xmlns:dc="http://purl.org/dc/elements/1.1/"
   xmlns:cc="http://creativecommons.org/ns#"
   xmlns:rdf="http://www.w3.org/1999/02/22-rdf-syntax-ns#"
   xmlns:svg="http://www.w3.org/2000/svg"
   xmlns="http://www.w3.org/2000/svg"
   xmlns:sodipodi="http://sodipodi.sourceforge.net/DTD/sodipodi-0.dtd"
   xmlns:inkscape="http://www.inkscape.org/namespaces/inkscape"
   version="1.1"
   id="svg2"
   width="221.7317"
   height="250"
   viewBox="0 0 221.7317 250"
   sodipodi:docname="green-tick.svg"
   inkscape:version="0.92.3 (2405546, 2018-03-11)">
  <metadata
     id="metadata8">
    <rdf:RDF>
      <cc:Work
         rdf:about="">
        <dc:format>image/svg+xml</dc:format>
        <dc:type
           rdf:resource="http://purl.org/dc/dcmitype/StillImage" />
        <dc:title></dc:title>
      </cc:Work>
    </rdf:RDF>
  </metadata>
  <defs
     id="defs6" />
  <sodipodi:namedview
     pagecolor="#ffffff"
     bordercolor="#666666"
     borderopacity="1"
     objecttolerance="10"
     gridtolerance="10"
     guidetolerance="10"
     inkscape:pageopacity="0"
     inkscape:pageshadow="2"
     inkscape:window-width="1920"
     inkscape:window-height="1057"
     id="namedview4"
     showgrid="false"
     inkscape:zoom="1.3657407"
     inkscape:cx="-101.86794"
     inkscape:cy="51.449347"
     inkscape:window-x="1912"
     inkscape:window-y="-8"
     inkscape:window-maximized="1"
     inkscape:current-layer="svg2" />
  <path
     style="fill:#00be05;fill-opacity:1;stroke:none;stroke-width:1.61892152px;stroke-linecap:butt;stroke-linejoin:miter;stroke-opacity:1"
     d="m 0,141.87348 c 0,0 28.079366,36.46127 39.814036,59.93059 11.73465,23.46933 20.954755,42.74769 20.954755,42.74769 0,0 12.99194,5.44824 20.11656,5.44824 7.12461,0 16.7638,-0.83818 18.85929,-5.44824 2.095459,-4.61004 27.241169,-73.34163 29.336649,-77.53258 2.09547,-4.19095 44.42407,-88.429052 50.7105,-96.391862 6.28642,-7.96282 41.90951,-62.0260716 41.90951,-62.0260716 0,0 0.83818,-2.933666 -6.28644,-6.286426 -7.12461,-3.352761 -25.1457,-2.93366604 -34.36578,0.419095 -9.2201,3.35276 -68.73159,108.5456246 -68.73159,108.5456246 l -34.784899,76.27531 c 0,0 -35.623085,-53.64418 -39.394935,-55.73965 -3.77186,-2.09549 -23.46933,-3.77186 -30.593945,0 C 0.419095,135.58706 0,141.87348 0,141.87348 Z"
     id="path817"
     inkscape:connector-curvature="0" />
</svg>
