<?xml version="1.0" encoding="UTF-8" standalone="no"?>
<!-- Created with Inkscape (http://www.inkscape.org/) -->

<svg
   xmlns:dc="http://purl.org/dc/elements/1.1/"
   xmlns:cc="http://creativecommons.org/ns#"
   xmlns:rdf="http://www.w3.org/1999/02/22-rdf-syntax-ns#"
   xmlns:svg="http://www.w3.org/2000/svg"
   xmlns="http://www.w3.org/2000/svg"
   xmlns:sodipodi="http://sodipodi.sourceforge.net/DTD/sodipodi-0.dtd"
   xmlns:inkscape="http://www.inkscape.org/namespaces/inkscape"
   version="1.1"
   id="svg819"
   width="250.31763"
   height="250"
   viewBox="0 0 250.31762 250"
   sodipodi:docname="red-cross.svg"
   inkscape:version="0.92.3 (2405546, 2018-03-11)">
  <metadata
     id="metadata825">
    <rdf:RDF>
      <cc:Work
         rdf:about="">
        <dc:format>image/svg+xml</dc:format>
        <dc:type
           rdf:resource="http://purl.org/dc/dcmitype/StillImage" />
        <dc:title></dc:title>
      </cc:Work>
    </rdf:RDF>
  </metadata>
  <defs
     id="defs823" />
  <sodipodi:namedview
     pagecolor="#ffffff"
     bordercolor="#666666"
     borderopacity="1"
     objecttolerance="10"
     gridtolerance="10"
     guidetolerance="10"
     inkscape:pageopacity="0"
     inkscape:pageshadow="2"
     inkscape:window-width="1920"
     inkscape:window-height="1057"
     id="namedview821"
     showgrid="false"
     inkscape:zoom="2.3082943"
     inkscape:cx="171.30323"
     inkscape:cy="51.82979"
     inkscape:window-x="1912"
     inkscape:window-y="-8"
     inkscape:window-maximized="1"
     inkscape:current-layer="svg819" />
  <path
     style="fill:#ff2c06;fill-opacity:1;stroke:none;stroke-width:1.2250489px;stroke-linecap:butt;stroke-linejoin:miter;stroke-opacity:1"
     d="m 94.509342,184.90643 c 0,0 14.860038,29.45474 16.452198,36.35406 1.59215,6.8993 6.8993,20.96328 9.28752,22.55543 2.38824,1.59214 19.1058,6.89931 26.80118,6.10324 7.69539,-0.79609 13.79862,-3.98038 13.79862,-3.98038 0,0 -0.26536,-32.10832 -10.61433,-49.88731 -10.34895,-17.77899 -18.84042,-37.15012 -18.84042,-37.15012 0,0 55.45984,-61.563066 75.89239,-74.830967 20.43257,-13.267902 38.21156,-23.08615 38.21156,-23.08615 0,0 8.2261,-16.452199 3.1843,-28.658668 -5.04181,-12.206471 -10.61432,-27.5972372 -19.10579,-31.3122492 -8.49145,-3.715013 -12.20646,3.98037 -12.20646,3.98037 L 148.37703,66.556752 106.18509,104.76831 c 0,0 -29.985463,-61.297708 -34.231188,-66.870227 -4.245726,-5.572518 -14.329336,-17.778989 -20.432566,-17.513631 -6.103231,0.265359 -13.79862,8.226099 -16.186841,14.063977 -2.38822,5.837877 1.061432,20.963285 3.449652,26.005088 2.388221,5.041802 28.924029,58.113413 29.98546,64.216643 1.061432,6.10323 2.918937,8.22609 1.061432,10.61432 -1.857505,2.38823 -24.943661,21.494 -24.943661,21.494 0,0 -35.0272597,29.45475 -37.9461959,32.63904 -2.9189362,3.1843 -5.8378724,5.83788 -6.63394593,11.67575 -0.79607351,5.83788 -0.26535784,20.16722 4.24572543,24.41294 4.5110832,4.24573 8.7568204,13.79862 22.5554284,11.4104 13.79862,-2.38822 25.739735,-13.79862 36.619419,-23.88223 10.879671,-10.08359 30.781533,-28.12795 30.781533,-28.12795 z"
     id="path1372"
     inkscape:connector-curvature="0" />
</svg>
